<svg xmlns="http://www.w3.org/2000/svg" xmlns:xlink="http://www.w3.org/1999/xlink" width="434" zoomAndPan="magnify" viewBox="0 0 325.5 95.249998" height="127" preserveAspectRatio="xMidYMid meet" version="1.0"><defs><g/></defs><g fill="#ffffff" fill-opacity="1"><g transform="translate(14.566642, 72.362074)"><g><path d="M 52.503906 -16.429688 C 50.117188 -9.933594 47.121094 -7.046875 44.511719 -7.046875 C 43.402344 -7.046875 42.679688 -7.769531 42.679688 -8.878906 C 42.679688 -9.378906 42.847656 -9.988281 43.070312 -10.65625 L 52.003906 -35.078125 C 52.449219 -36.242188 52.726562 -37.519531 52.726562 -39.074219 C 52.726562 -44.289062 48.898438 -48.175781 43.234375 -48.175781 C 39.90625 -48.175781 35.910156 -46.84375 33.300781 -44.125 C 31.582031 -46.730469 29.914062 -48.175781 26.140625 -48.175781 C 22.589844 -48.175781 20.257812 -45.953125 20.035156 -45.675781 C 19.59375 -47.066406 18.039062 -48.175781 15.929688 -48.175781 C 14.320312 -48.175781 12.097656 -47.507812 11.320312 -45.34375 L -2.941406 -5.382812 C -3.164062 -4.828125 -3.164062 -4.328125 -3.164062 -3.828125 C -3.164062 -1.386719 -1.222656 0 0.945312 0 C 2.832031 0 4.882812 -1.109375 5.773438 -3.550781 L 16.484375 -33.410156 C 17.816406 -37.128906 19.871094 -39.074219 22.367188 -39.074219 C 25.253906 -39.074219 26.03125 -36.851562 24.476562 -32.523438 L 14.761719 -5.828125 C 14.484375 -5.050781 14.320312 -4.328125 14.320312 -3.71875 C 14.320312 -1.332031 16.261719 0 18.371094 0 C 20.3125 0 22.367188 -1.109375 23.253906 -3.609375 L 33.632812 -32.691406 C 34.964844 -36.464844 37.1875 -39.015625 39.90625 -39.015625 C 42.070312 -39.015625 43.511719 -37.128906 42.515625 -34.410156 L 34.742188 -12.933594 C 34.246094 -11.488281 33.964844 -9.933594 33.964844 -8.65625 C 33.964844 -3.164062 38.351562 0 43.734375 0 C 49.839844 0 55.667969 -3.996094 59.109375 -14.820312 C 59.21875 -15.261719 59.332031 -15.652344 59.332031 -16.039062 C 59.332031 -17.980469 57.664062 -19.09375 56 -19.09375 C 54.558594 -19.09375 53.171875 -18.261719 52.503906 -16.429688 Z M 52.503906 -16.429688 "/></g></g></g><g fill="#ffffff" fill-opacity="1"><g transform="translate(65.127523, 72.362074)"><g><path d="M 7.660156 -9.546875 L 13.820312 -27.027344 C 14.042969 -27.640625 14.152344 -28.195312 14.152344 -28.75 C 14.152344 -31.023438 12.15625 -32.578125 10.101562 -32.578125 C 8.546875 -32.578125 6.882812 -31.636719 6.105469 -29.414062 L -0.609375 -10.324219 C -1 -9.269531 -1.164062 -8.214844 -1.164062 -7.214844 C -1.164062 -3.441406 1.5 -0.722656 5.105469 0 C -1.664062 1.5 -8.378906 4.273438 -8.378906 11.101562 C -8.378906 16.484375 -3.386719 20.035156 2.054688 20.035156 C 7.546875 20.035156 12.710938 17.09375 15.039062 10.65625 C 15.816406 8.324219 16.707031 5.882812 17.539062 3.609375 C 25.476562 1.109375 33.632812 -3.21875 37.464844 -14.875 C 37.628906 -15.316406 37.683594 -15.761719 37.683594 -16.152344 C 37.683594 -18.039062 36.242188 -19.148438 34.578125 -19.148438 C 33.078125 -19.148438 31.46875 -18.203125 30.691406 -16.039062 C 28.636719 -10.378906 24.921875 -7.046875 20.589844 -4.828125 L 28.417969 -27.417969 C 28.582031 -27.917969 28.636719 -28.359375 28.636719 -28.75 C 28.636719 -31.023438 26.640625 -32.578125 24.585938 -32.578125 C 23.03125 -32.578125 21.367188 -31.636719 20.589844 -29.414062 L 14.207031 -10.65625 C 12.433594 -7.660156 10.488281 -6.550781 8.992188 -6.550781 C 7.992188 -6.550781 7.382812 -7.160156 7.382812 -8.160156 C 7.382812 -8.546875 7.492188 -9.046875 7.660156 -9.546875 Z M 7.382812 6.160156 L 6.050781 9.933594 C 5.273438 11.988281 3.550781 13.042969 1.886719 13.042969 C 0.609375 13.042969 0.0546875 12.265625 0.0546875 11.265625 C 0.0546875 10.933594 0.109375 10.488281 0.277344 10.101562 C 1.054688 8.160156 3.773438 7.105469 7.382812 6.160156 Z M 7.382812 6.160156 "/></g></g></g><g fill="#ffffff" fill-opacity="1"><g transform="translate(93.987739, 72.362074)"><g/></g></g><g fill="#ffffff" fill-opacity="1"><g transform="translate(115.188896, 72.362074)"><g><path d="M 39.015625 -47.066406 L 12.097656 -47.066406 C 8.9375 -46.953125 7.605469 -45.179688 7.605469 -43.402344 C 7.605469 -41.738281 8.824219 -40.128906 10.824219 -40.128906 L 19.425781 -40.128906 L 7.269531 -5.160156 C 7.046875 -4.605469 6.992188 -4.050781 6.992188 -3.609375 C 6.992188 -1.277344 9.046875 0 11.15625 0 C 13.042969 0 14.929688 -1 15.652344 -3.109375 L 28.582031 -40.128906 L 37.628906 -40.128906 C 40.738281 -40.128906 42.070312 -42.015625 42.070312 -43.789062 C 42.070312 -45.457031 40.90625 -47.066406 39.015625 -47.066406 Z M 39.015625 -47.066406 "/></g></g></g><g fill="#ffffff" fill-opacity="1"><g transform="translate(148.37815, 72.362074)"><g><path d="M 28.082031 -15.652344 C 25.640625 -9.214844 19.8125 -6.605469 15.097656 -6.605469 C 11.042969 -6.605469 8.492188 -8.546875 8.492188 -11.101562 C 8.492188 -11.601562 8.546875 -12.097656 8.769531 -12.652344 L 9.214844 -13.707031 C 10.824219 -12.710938 12.820312 -12.042969 15.039062 -12.042969 C 20.089844 -12.042969 24.53125 -15.207031 26.03125 -20.203125 C 26.308594 -21.257812 26.472656 -22.3125 26.472656 -23.253906 C 26.472656 -28.527344 22.3125 -32.578125 16.039062 -32.578125 C 11.101562 -32.578125 6.273438 -29.691406 4.328125 -24.144531 L 1.054688 -14.652344 C 0.609375 -13.320312 0.332031 -11.988281 0.332031 -10.710938 C 0.332031 -4.105469 6.550781 0 14.652344 0 C 22.367188 0 31.136719 -3.773438 34.800781 -14.375 C 34.964844 -14.820312 35.019531 -15.207031 35.019531 -15.539062 C 35.019531 -17.261719 33.46875 -18.203125 31.800781 -18.203125 C 30.25 -18.203125 28.582031 -17.371094 28.082031 -15.652344 Z M 15.875 -26.03125 C 17.425781 -26.03125 18.425781 -24.753906 18.425781 -23.144531 C 18.425781 -22.699219 18.371094 -22.257812 18.203125 -21.8125 C 17.648438 -19.980469 15.984375 -19.3125 14.320312 -19.3125 C 13.265625 -19.3125 12.210938 -19.535156 11.433594 -19.980469 L 12.597656 -23.308594 C 13.210938 -25.03125 14.597656 -26.03125 15.875 -26.03125 Z M 15.875 -26.03125 "/></g></g></g><g fill="#ffffff" fill-opacity="1"><g transform="translate(174.685346, 72.362074)"><g><path d="M 34.800781 -18.757812 C 33.246094 -18.757812 31.523438 -17.816406 30.859375 -15.707031 C 28.695312 -8.878906 25.199219 -6.605469 22.699219 -6.605469 C 21.757812 -6.605469 21.203125 -7.105469 21.203125 -7.992188 C 21.203125 -8.4375 21.3125 -8.992188 21.480469 -9.601562 L 27.695312 -27.585938 C 27.917969 -28.25 28.027344 -28.859375 28.027344 -29.414062 C 28.027344 -31.859375 26.03125 -33.132812 23.976562 -33.132812 C 22.421875 -33.132812 20.8125 -32.414062 19.925781 -31.023438 C 18.757812 -31.746094 16.59375 -32.578125 13.765625 -32.578125 C 10.101562 -32.578125 6.105469 -30.582031 4.605469 -26.308594 L -0.609375 -11.378906 C -0.945312 -10.378906 -1.164062 -9.378906 -1.164062 -8.378906 C -1.164062 -3.773438 2.554688 0 7.4375 0 C 10.046875 0 12.710938 -1.164062 14.761719 -2.996094 C 16.539062 -0.445312 20.480469 0 22.144531 0 C 26.75 0 32.914062 -2.332031 36.464844 -11.320312 C 37.242188 -13.488281 37.851562 -14.875 37.851562 -15.875 C 37.851562 -17.761719 36.410156 -18.757812 34.800781 -18.757812 Z M 16.484375 -19.3125 L 13.820312 -11.042969 C 12.652344 -7.4375 10.546875 -6.605469 9.378906 -6.605469 C 8.160156 -6.605469 7.546875 -7.382812 7.546875 -8.65625 C 7.546875 -9.378906 7.714844 -10.046875 7.882812 -10.546875 L 11.433594 -21.699219 C 12.488281 -25.085938 14.042969 -25.53125 14.929688 -25.53125 C 15.984375 -25.53125 17.148438 -24.476562 17.148438 -22.589844 C 17.148438 -21.757812 16.929688 -20.703125 16.484375 -19.3125 Z M 16.484375 -19.3125 "/></g></g></g><g fill="#ffffff" fill-opacity="1"><g transform="translate(203.823064, 72.362074)"><g><path d="M 26.863281 -16.484375 C 24.03125 -9.324219 18.648438 -6.660156 14.429688 -6.660156 C 10.601562 -6.660156 8.160156 -8.878906 8.160156 -11.710938 C 8.160156 -12.320312 8.269531 -12.988281 8.492188 -13.707031 L 11.878906 -23.308594 C 12.375 -24.640625 13.488281 -25.476562 14.375 -25.476562 C 15.484375 -25.476562 16.039062 -24.808594 16.039062 -23.867188 C 16.039062 -23.253906 15.816406 -22.589844 15.429688 -21.8125 C 15.152344 -21.257812 14.984375 -20.703125 14.984375 -20.148438 C 14.984375 -18.203125 16.816406 -16.707031 18.757812 -16.707031 C 20.367188 -16.707031 22.089844 -17.703125 23.089844 -20.257812 C 23.644531 -21.757812 23.867188 -23.089844 23.867188 -24.363281 C 23.867188 -29.582031 19.535156 -32.578125 14.761719 -32.578125 C 10.378906 -32.578125 5.660156 -30.027344 3.664062 -24.199219 L 0.5 -14.875 C 0.0546875 -13.542969 -0.167969 -12.210938 -0.167969 -10.988281 C -0.167969 -4.605469 5.382812 0 13.542969 0 C 21.757812 0 29.859375 -4.660156 33.410156 -14.761719 C 33.578125 -15.152344 33.632812 -15.539062 33.632812 -15.875 C 33.632812 -17.648438 31.914062 -18.757812 30.191406 -18.757812 C 28.804688 -18.757812 27.417969 -18.09375 26.863281 -16.484375 Z M 26.863281 -16.484375 "/></g></g></g><g fill="#ffffff" fill-opacity="1"><g transform="translate(228.631767, 72.362074)"><g><path d="M 31.636719 -16.09375 C 29.195312 -9.433594 26.03125 -6.605469 23.53125 -6.605469 C 22.476562 -6.605469 21.8125 -7.214844 21.8125 -8.046875 C 21.8125 -8.269531 21.867188 -8.546875 21.976562 -8.769531 L 26.53125 -21.699219 C 26.917969 -22.753906 27.027344 -23.753906 27.027344 -24.699219 C 27.027344 -29.136719 23.53125 -32.578125 19.035156 -32.578125 C 17.703125 -32.578125 16.648438 -32.355469 15.484375 -31.859375 L 18.980469 -42.070312 C 19.257812 -42.957031 19.535156 -43.789062 19.535156 -44.511719 C 19.535156 -46.84375 17.703125 -48.175781 15.875 -48.175781 C 13.707031 -48.175781 12.375 -46.898438 11.320312 -43.957031 L -1.996094 -6.214844 C -2.277344 -5.4375 -2.386719 -4.71875 -2.386719 -4.050781 C -2.386719 -1.554688 -0.554688 0 1.332031 0 C 2.941406 0 4.605469 -1 5.4375 -3.328125 L 12.15625 -22.3125 C 13.320312 -24.421875 15.207031 -26.03125 16.929688 -26.03125 C 18.039062 -26.03125 18.816406 -25.199219 18.816406 -24.199219 C 18.816406 -23.867188 18.757812 -23.53125 18.59375 -23.199219 L 14.542969 -11.601562 C 14.097656 -10.269531 13.875 -9.046875 13.875 -7.9375 C 13.875 -2.71875 18.316406 0 23.03125 0 C 28.304688 0 34.355469 -3.273438 38.351562 -14.820312 C 38.460938 -15.207031 38.519531 -15.539062 38.519531 -15.875 C 38.519531 -17.59375 36.851562 -18.703125 35.078125 -18.703125 C 33.6875 -18.703125 32.191406 -17.925781 31.636719 -16.09375 Z M 31.636719 -16.09375 "/></g></g></g><g fill="#ffffff" fill-opacity="1"><g transform="translate(258.379975, 72.362074)"><g><path d="M 28.082031 -15.652344 C 25.640625 -9.214844 19.8125 -6.605469 15.097656 -6.605469 C 11.042969 -6.605469 8.492188 -8.546875 8.492188 -11.101562 C 8.492188 -11.601562 8.546875 -12.097656 8.769531 -12.652344 L 9.214844 -13.707031 C 10.824219 -12.710938 12.820312 -12.042969 15.039062 -12.042969 C 20.089844 -12.042969 24.53125 -15.207031 26.03125 -20.203125 C 26.308594 -21.257812 26.472656 -22.3125 26.472656 -23.253906 C 26.472656 -28.527344 22.3125 -32.578125 16.039062 -32.578125 C 11.101562 -32.578125 6.273438 -29.691406 4.328125 -24.144531 L 1.054688 -14.652344 C 0.609375 -13.320312 0.332031 -11.988281 0.332031 -10.710938 C 0.332031 -4.105469 6.550781 0 14.652344 0 C 22.367188 0 31.136719 -3.773438 34.800781 -14.375 C 34.964844 -14.820312 35.019531 -15.207031 35.019531 -15.539062 C 35.019531 -17.261719 33.46875 -18.203125 31.800781 -18.203125 C 30.25 -18.203125 28.582031 -17.371094 28.082031 -15.652344 Z M 15.875 -26.03125 C 17.425781 -26.03125 18.425781 -24.753906 18.425781 -23.144531 C 18.425781 -22.699219 18.371094 -22.257812 18.203125 -21.8125 C 17.648438 -19.980469 15.984375 -19.3125 14.320312 -19.3125 C 13.265625 -19.3125 12.210938 -19.535156 11.433594 -19.980469 L 12.597656 -23.308594 C 13.210938 -25.03125 14.597656 -26.03125 15.875 -26.03125 Z M 15.875 -26.03125 "/></g></g></g><g fill="#ffffff" fill-opacity="1"><g transform="translate(284.68716, 72.362074)"><g><path d="M 28.140625 -16.09375 C 26.03125 -10.65625 23.199219 -6.605469 20.867188 -6.605469 C 20.089844 -6.605469 19.703125 -7.324219 19.703125 -8.101562 C 19.703125 -8.4375 19.757812 -8.878906 19.925781 -9.324219 L 23.199219 -18.425781 C 23.53125 -19.535156 23.753906 -20.535156 23.753906 -21.480469 C 23.753906 -26.75 17.09375 -28.972656 13.984375 -29.914062 C 14.152344 -30.359375 14.207031 -30.859375 14.207031 -31.300781 C 14.207031 -33.855469 11.933594 -36.019531 9.433594 -36.019531 C 6.160156 -36.019531 4.21875 -33.132812 4.21875 -29.96875 C 4.21875 -28.582031 4.71875 -27.140625 5.605469 -26.03125 L 1.554688 -15.097656 C 1.441406 -14.652344 1.386719 -14.207031 1.386719 -13.875 C 1.386719 -12.042969 2.832031 -11.101562 4.382812 -11.101562 C 5.9375 -11.101562 7.546875 -11.988281 8.214844 -13.765625 L 11.320312 -22.089844 C 12.875 -21.589844 14.929688 -21.203125 14.929688 -19.3125 C 14.929688 -19.035156 14.875 -18.703125 14.761719 -18.316406 L 12.320312 -11.542969 C 11.878906 -10.269531 11.65625 -9.101562 11.65625 -7.992188 C 11.65625 -3.164062 15.484375 0 20.089844 0 C 26.140625 0 31.636719 -5.382812 34.910156 -14.761719 C 35.019531 -15.097656 35.078125 -15.375 35.078125 -15.652344 C 35.078125 -17.316406 33.246094 -18.425781 31.46875 -18.425781 C 30.027344 -18.425781 28.636719 -17.761719 28.140625 -16.09375 Z M 28.140625 -16.09375 "/></g></g></g></svg>