<svg xmlns="http://www.w3.org/2000/svg" xmlns:xlink="http://www.w3.org/1999/xlink" width="434" zoomAndPan="magnify" viewBox="0 0 325.5 95.249998" height="127" preserveAspectRatio="xMidYMid meet" version="1.0"><path fill="rgb(100%, 100%, 100%)" d="M 74.535156 53.449219 C 72.058594 60.167969 68.949219 63.15625 66.246094 63.15625 C 65.09375 63.15625 64.347656 62.410156 64.347656 61.257812 C 64.347656 60.742188 64.515625 60.109375 64.75 59.421875 L 74.015625 34.144531 C 74.476562 32.941406 74.761719 31.621094 74.761719 30.011719 C 74.761719 24.609375 70.792969 20.589844 64.921875 20.589844 C 61.46875 20.589844 57.324219 21.96875 54.621094 24.785156 C 52.832031 22.085938 51.109375 20.589844 47.195312 20.589844 C 43.511719 20.589844 41.089844 22.886719 40.863281 23.175781 C 40.398438 21.738281 38.789062 20.589844 36.601562 20.589844 C 34.933594 20.589844 32.632812 21.28125 31.824219 23.515625 L 17.03125 64.878906 C 16.804688 65.453125 16.804688 65.972656 16.804688 66.488281 C 16.804688 69.015625 18.816406 70.449219 21.0625 70.449219 C 23.019531 70.449219 25.148438 69.304688 26.070312 66.773438 L 37.179688 35.867188 C 38.558594 32.019531 40.691406 30.011719 43.277344 30.011719 C 46.273438 30.011719 47.078125 32.308594 45.464844 36.789062 L 35.394531 64.417969 C 35.105469 65.222656 34.933594 65.972656 34.933594 66.601562 C 34.933594 69.070312 36.945312 70.449219 39.132812 70.449219 C 41.148438 70.449219 43.277344 69.304688 44.199219 66.714844 L 54.964844 36.613281 C 56.34375 32.710938 58.648438 30.066406 61.46875 30.066406 C 63.710938 30.066406 65.207031 32.019531 64.175781 34.835938 L 56.117188 57.066406 C 55.597656 58.558594 55.308594 60.167969 55.308594 61.488281 C 55.308594 67.175781 59.855469 70.449219 65.441406 70.449219 C 71.773438 70.449219 77.816406 66.3125 81.382812 55.113281 C 81.5 54.652344 81.613281 54.253906 81.613281 53.847656 C 81.613281 51.839844 79.886719 50.691406 78.15625 50.691406 C 76.664062 50.691406 75.226562 51.554688 74.535156 53.449219 Z M 74.535156 53.449219 " fill-opacity="1" fill-rule="nonzero"/><path fill="rgb(100%, 100%, 100%)" d="M 80.453125 60.570312 L 86.84375 42.476562 C 87.078125 41.84375 87.191406 41.269531 87.191406 40.691406 C 87.191406 38.339844 85.121094 36.730469 82.988281 36.730469 C 81.378906 36.730469 79.652344 37.707031 78.847656 40.003906 L 71.878906 59.765625 C 71.480469 60.855469 71.304688 61.945312 71.304688 62.984375 C 71.304688 66.886719 74.070312 69.703125 77.808594 70.449219 C 70.789062 72.003906 63.824219 74.875 63.824219 81.9375 C 63.824219 87.511719 69.003906 91.1875 74.644531 91.1875 C 80.34375 91.1875 85.695312 88.140625 88.109375 81.480469 C 88.917969 79.066406 89.839844 76.539062 90.703125 74.1875 C 98.933594 71.597656 107.394531 67.121094 111.363281 55.054688 C 111.539062 54.59375 111.59375 54.136719 111.59375 53.734375 C 111.59375 51.78125 110.097656 50.632812 108.371094 50.632812 C 106.816406 50.632812 105.148438 51.605469 104.34375 53.847656 C 102.214844 59.710938 98.355469 63.15625 93.867188 65.453125 L 101.984375 42.070312 C 102.15625 41.554688 102.214844 41.097656 102.214844 40.691406 C 102.214844 38.339844 100.140625 36.730469 98.011719 36.730469 C 96.398438 36.730469 94.675781 37.707031 93.867188 40.003906 L 87.25 59.421875 C 85.40625 62.523438 83.390625 63.671875 81.835938 63.671875 C 80.800781 63.671875 80.167969 63.039062 80.167969 62.003906 C 80.167969 61.605469 80.285156 61.089844 80.453125 60.570312 Z M 80.167969 76.828125 L 78.789062 80.734375 C 77.980469 82.859375 76.199219 83.949219 74.46875 83.949219 C 73.144531 83.949219 72.570312 83.144531 72.570312 82.113281 C 72.570312 81.765625 72.628906 81.308594 72.804688 80.90625 C 73.605469 78.894531 76.425781 77.800781 80.167969 76.828125 Z M 80.167969 76.828125 " fill-opacity="1" fill-rule="nonzero"/><path fill="rgb(100%, 100%, 100%)" d="M 142.902344 21.738281 L 114.988281 21.738281 C 111.707031 21.851562 110.328125 23.691406 110.328125 25.53125 C 110.328125 27.253906 111.59375 28.921875 113.664062 28.921875 L 122.585938 28.921875 L 109.980469 65.109375 C 109.75 65.683594 109.691406 66.257812 109.691406 66.714844 C 109.691406 69.128906 111.820312 70.449219 114.007812 70.449219 C 115.964844 70.449219 117.921875 69.417969 118.671875 67.234375 L 132.082031 28.921875 L 141.464844 28.921875 C 144.6875 28.921875 146.066406 26.964844 146.066406 25.125 C 146.066406 23.40625 144.859375 21.738281 142.902344 21.738281 Z M 142.902344 21.738281 " fill-opacity="1" fill-rule="nonzero"/><path fill="rgb(100%, 100%, 100%)" d="M 165.984375 54.253906 C 163.449219 60.914062 157.40625 63.613281 152.511719 63.613281 C 148.308594 63.613281 145.664062 61.605469 145.664062 58.960938 C 145.664062 58.445312 145.71875 57.925781 145.953125 57.351562 L 146.410156 56.261719 C 148.082031 57.296875 150.152344 57.984375 152.453125 57.984375 C 157.695312 57.984375 162.296875 54.710938 163.851562 49.542969 C 164.136719 48.449219 164.3125 47.359375 164.3125 46.382812 C 164.3125 40.925781 159.992188 36.730469 153.492188 36.730469 C 148.367188 36.730469 143.363281 39.71875 141.34375 45.460938 L 137.949219 55.285156 C 137.488281 56.664062 137.199219 58.042969 137.199219 59.363281 C 137.199219 66.199219 143.648438 70.449219 152.050781 70.449219 C 160.050781 70.449219 169.148438 66.546875 172.945312 55.574219 C 173.117188 55.113281 173.175781 54.710938 173.175781 54.363281 C 173.175781 52.585938 171.5625 51.605469 169.835938 51.605469 C 168.222656 51.605469 166.5 52.46875 165.984375 54.253906 Z M 153.316406 43.507812 C 154.929688 43.507812 155.964844 44.828125 155.964844 46.496094 C 155.964844 46.953125 155.90625 47.417969 155.738281 47.875 C 155.160156 49.769531 153.433594 50.460938 151.707031 50.460938 C 150.613281 50.460938 149.519531 50.230469 148.714844 49.769531 L 149.921875 46.324219 C 150.554688 44.542969 151.996094 43.507812 153.316406 43.507812 Z M 153.316406 43.507812 " fill-opacity="1" fill-rule="nonzero"/><path fill="rgb(100%, 100%, 100%)" d="M 200.222656 51.03125 C 198.613281 51.03125 196.828125 52.011719 196.136719 54.195312 C 193.894531 61.257812 190.269531 63.613281 187.679688 63.613281 C 186.699219 63.613281 186.125 63.097656 186.125 62.179688 C 186.125 61.71875 186.238281 61.144531 186.414062 60.515625 L 192.859375 41.902344 C 193.089844 41.210938 193.203125 40.582031 193.203125 40.003906 C 193.203125 37.476562 191.132812 36.15625 189.003906 36.15625 C 187.390625 36.15625 185.722656 36.902344 184.800781 38.339844 C 183.59375 37.59375 181.347656 36.730469 178.410156 36.730469 C 174.613281 36.730469 170.46875 38.796875 168.914062 43.222656 L 163.503906 58.671875 C 163.15625 59.710938 162.929688 60.742188 162.929688 61.777344 C 162.929688 66.546875 166.785156 70.449219 171.851562 70.449219 C 174.554688 70.449219 177.320312 69.246094 179.449219 67.351562 C 181.289062 69.992188 185.375 70.449219 187.105469 70.449219 C 191.882812 70.449219 198.269531 68.039062 201.953125 58.730469 C 202.757812 56.488281 203.390625 55.054688 203.390625 54.023438 C 203.390625 52.070312 201.894531 51.03125 200.222656 51.03125 Z M 181.230469 50.460938 L 178.46875 59.019531 C 177.261719 62.753906 175.074219 63.613281 173.863281 63.613281 C 172.597656 63.613281 171.964844 62.808594 171.964844 61.488281 C 171.964844 60.742188 172.136719 60.050781 172.308594 59.535156 L 175.996094 47.992188 C 177.085938 44.484375 178.699219 44.027344 179.617188 44.027344 C 180.714844 44.027344 181.921875 45.117188 181.921875 47.070312 C 181.921875 47.933594 181.691406 49.023438 181.230469 50.460938 Z M 181.230469 50.460938 " fill-opacity="1" fill-rule="nonzero"/><path fill="rgb(100%, 100%, 100%)" d="M 222.207031 53.390625 C 219.273438 60.800781 213.691406 63.558594 209.316406 63.558594 C 205.34375 63.558594 202.8125 61.257812 202.8125 58.332031 C 202.8125 57.699219 202.929688 57.011719 203.15625 56.261719 L 206.667969 46.324219 C 207.183594 44.945312 208.339844 44.082031 209.257812 44.082031 C 210.410156 44.082031 210.984375 44.769531 210.984375 45.75 C 210.984375 46.382812 210.753906 47.070312 210.351562 47.875 C 210.0625 48.449219 209.890625 49.023438 209.890625 49.597656 C 209.890625 51.605469 211.792969 53.160156 213.808594 53.160156 C 215.472656 53.160156 217.261719 52.125 218.292969 49.484375 C 218.871094 47.933594 219.101562 46.554688 219.101562 45.234375 C 219.101562 39.835938 214.609375 36.730469 209.664062 36.730469 C 205.113281 36.730469 200.21875 39.371094 198.148438 45.40625 L 194.867188 55.054688 C 194.410156 56.433594 194.175781 57.8125 194.175781 59.078125 C 194.175781 65.683594 199.933594 70.449219 208.398438 70.449219 C 216.914062 70.449219 225.316406 65.625 229.003906 55.167969 C 229.171875 54.769531 229.230469 54.363281 229.230469 54.023438 C 229.230469 52.183594 227.449219 51.03125 225.660156 51.03125 C 224.222656 51.03125 222.785156 51.722656 222.207031 53.390625 Z M 222.207031 53.390625 " fill-opacity="1" fill-rule="nonzero"/><path fill="rgb(100%, 100%, 100%)" d="M 252.882812 53.789062 C 250.351562 60.683594 247.074219 63.613281 244.480469 63.613281 C 243.386719 63.613281 242.695312 62.984375 242.695312 62.121094 C 242.695312 61.890625 242.753906 61.605469 242.871094 61.375 L 247.589844 47.992188 C 247.992188 46.898438 248.105469 45.863281 248.105469 44.886719 C 248.105469 40.292969 244.480469 36.730469 239.816406 36.730469 C 238.4375 36.730469 237.34375 36.960938 236.136719 37.476562 L 239.761719 26.910156 C 240.050781 25.988281 240.335938 25.125 240.335938 24.378906 C 240.335938 21.96875 238.4375 20.589844 236.539062 20.589844 C 234.292969 20.589844 232.910156 21.910156 231.820312 24.953125 L 218.003906 64.015625 C 217.714844 64.820312 217.601562 65.566406 217.601562 66.257812 C 217.601562 68.839844 219.5 70.449219 221.457031 70.449219 C 223.128906 70.449219 224.855469 69.417969 225.71875 67.003906 L 232.683594 47.359375 C 233.890625 45.175781 235.847656 43.507812 237.628906 43.507812 C 238.785156 43.507812 239.589844 44.371094 239.589844 45.40625 C 239.589844 45.75 239.53125 46.097656 239.359375 46.4375 L 235.15625 58.445312 C 234.699219 59.824219 234.464844 61.089844 234.464844 62.234375 C 234.464844 67.636719 239.070312 70.449219 243.960938 70.449219 C 249.429688 70.449219 255.703125 67.0625 259.847656 55.113281 C 259.964844 54.710938 260.023438 54.363281 260.023438 54.023438 C 260.023438 52.242188 258.292969 51.089844 256.453125 51.089844 C 255.015625 51.089844 253.457031 51.894531 252.882812 53.789062 Z M 252.882812 53.789062 " fill-opacity="1" fill-rule="nonzero"/><path fill="rgb(100%, 100%, 100%)" d="M 280.050781 54.253906 C 277.515625 60.914062 271.472656 63.613281 266.578125 63.613281 C 262.378906 63.613281 259.730469 61.605469 259.730469 58.960938 C 259.730469 58.445312 259.789062 57.925781 260.019531 57.351562 L 260.480469 56.261719 C 262.148438 57.296875 264.222656 57.984375 266.523438 57.984375 C 271.761719 57.984375 276.367188 54.710938 277.921875 49.542969 C 278.207031 48.449219 278.378906 47.359375 278.378906 46.382812 C 278.378906 40.925781 274.0625 36.730469 267.558594 36.730469 C 262.433594 36.730469 257.429688 39.71875 255.414062 45.460938 L 252.015625 55.285156 C 251.558594 56.664062 251.269531 58.042969 251.269531 59.363281 C 251.269531 66.199219 257.714844 70.449219 266.121094 70.449219 C 274.121094 70.449219 283.214844 66.546875 287.011719 55.574219 C 287.1875 55.113281 287.242188 54.710938 287.242188 54.363281 C 287.242188 52.585938 285.628906 51.605469 283.90625 51.605469 C 282.292969 51.605469 280.566406 52.46875 280.050781 54.253906 Z M 267.386719 43.507812 C 269 43.507812 270.035156 44.828125 270.035156 46.496094 C 270.035156 46.953125 269.976562 47.417969 269.804688 47.875 C 269.226562 49.769531 267.503906 50.460938 265.773438 50.460938 C 264.679688 50.460938 263.589844 50.230469 262.78125 49.769531 L 263.992188 46.324219 C 264.625 44.542969 266.0625 43.507812 267.386719 43.507812 Z M 267.386719 43.507812 " fill-opacity="1" fill-rule="nonzero"/><path fill="rgb(100%, 100%, 100%)" d="M 307.382812 53.789062 C 305.199219 59.421875 302.261719 63.613281 299.84375 63.613281 C 299.042969 63.613281 298.636719 62.867188 298.636719 62.0625 C 298.636719 61.71875 298.695312 61.257812 298.867188 60.800781 L 302.261719 51.378906 C 302.605469 50.230469 302.839844 49.195312 302.839844 48.21875 C 302.839844 42.761719 295.929688 40.464844 292.710938 39.488281 C 292.882812 39.027344 292.941406 38.511719 292.941406 38.050781 C 292.941406 35.410156 290.578125 33.167969 287.988281 33.167969 C 284.59375 33.167969 282.578125 36.15625 282.578125 39.429688 C 282.578125 40.867188 283.097656 42.359375 284.019531 43.507812 L 279.816406 54.828125 C 279.703125 55.285156 279.644531 55.742188 279.644531 56.089844 C 279.644531 57.984375 281.140625 58.960938 282.75 58.960938 C 284.363281 58.960938 286.035156 58.042969 286.722656 56.207031 L 289.945312 47.585938 C 291.558594 48.105469 293.683594 48.507812 293.683594 50.460938 C 293.683594 50.75 293.632812 51.089844 293.515625 51.496094 L 290.980469 58.5 C 290.519531 59.824219 290.289062 61.03125 290.289062 62.179688 C 290.289062 67.175781 294.265625 70.449219 299.042969 70.449219 C 305.316406 70.449219 311.011719 64.878906 314.40625 55.167969 C 314.523438 54.828125 314.582031 54.539062 314.582031 54.253906 C 314.582031 52.527344 312.683594 51.378906 310.835938 51.378906 C 309.34375 51.378906 307.90625 52.070312 307.382812 53.789062 Z M 307.382812 53.789062 " fill-opacity="1" fill-rule="nonzero"/></svg>